# xmcd CD database file
#
# Track frame offsets:
#	150
#	13065
#	29750
#	51142
#	64701
#	83117
#	97076
#	113756
#	124857
#	139622
#	152908
#	166956
#	179816
#	194112
#	222874
#
# Disc length: 3089 seconds
#
# Revision: 0
# Processed by: cddbd v1.5.2PL0 Copyright (c) Steve Scherf et al.
# Submitted via: CDex 1.77
#
DISCID=df0c0f0f
DTITLE=Various Artist - Diva of Jazz 4
DYEAR=2008
DGENRE=Jazz
TTITLE0=Cry Me A River
TTITLE1=Every Time We Say Goodbye
TTITLE2=The Masquerade is Over
TTITLE3=I Only Have Eyes For You
TTITLE4=I Got It Bad And That Aint't Good
TTITLE5=Stormy Weather
TTITLE6=Moonlight in Vermont
TTITLE7=T'ant Nobody's Business If I Do
TTITLE8=Loverman
TTITLE9=Georgia On My Mind
TTITLE10=You Go To My Head
TTITLE11=Let There Be Love
TTITLE12=Sophisticated Lady
TTITLE13=Empty Bed Blues
TTITLE14=Come On A My House
EXTD=YEAR: 2008
EXTT0=
EXTT1=
EXTT2=
EXTT3=
EXTT4=
EXTT5=
EXTT6=
EXTT7=
EXTT8=
EXTT9=
EXTT10=
EXTT11=
EXTT12=
EXTT13=
EXTT14=
PLAYORDER=
